<svg xmlns="http://www.w3.org/2000/svg">

	<!--Angular Ico-->
	<symbol viewBox="0 0 512 512" id="angularIco">
		<path style="fill:red" d="M216.879,268.426h78.241L256,174.372L216.879,268.426L216.879,268.426z M256,26.001L42.635,102.395l32.652,283.081    L256,485.999l180.712-100.523l32.653-283.081L256,26.001z M389.688,376.957h-49.904l-26.9-67.153H199.321l-26.903,67.153h-50.003    L256,76.827L389.688,376.957z"/>
	</symbol>

  <!--eye open-->
  <symbol id="eye-open" viewBox="0 0 59.2 59.2">
	  <path d="M51.062,21.561c-11.889-11.889-31.232-11.889-43.121,0L0,29.501l8.138,8.138c5.944,5.944,13.752,8.917,21.561,8.917
	  	s15.616-2.972,21.561-8.917l7.941-7.941L51.062,21.561z M49.845,36.225c-11.109,11.108-29.184,11.108-40.293,0l-6.724-6.724
	  	l6.527-6.527c11.109-11.108,29.184-11.108,40.293,0l6.724,6.724L49.845,36.225z"/>
	  <path d="M28.572,21.57c-3.86,0-7,3.14-7,7c0,0.552,0.448,1,1,1s1-0.448,1-1c0-2.757,2.243-5,5-5c0.552,0,1-0.448,1-1
	  	S29.125,21.57,28.572,21.57z"/>
	  <path d="M29.572,16.57c-7.168,0-13,5.832-13,13s5.832,13,13,13s13-5.832,13-13S36.741,16.57,29.572,16.57z M29.572,40.57
	  	c-6.065,0-11-4.935-11-11s4.935-11,11-11s11,4.935,11,11S35.638,40.57,29.572,40.57z"/>
  </symbol>

  <!--eye hide-->
  <symbol id="eye-hide" viewBox="0 0 59.049 59.049">
  	<path d="M11.285,41.39c0.184,0.146,0.404,0.218,0.623,0.218c0.294,0,0.585-0.129,0.783-0.377c0.344-0.432,0.273-1.061-0.159-1.405
  		c-0.801-0.638-1.577-1.331-2.305-2.06l-7.398-7.398l7.629-7.629c7.334-7.333,18.003-9.836,27.839-6.534
  		c0.523,0.173,1.09-0.107,1.267-0.63c0.175-0.523-0.106-1.091-0.63-1.267c-10.562-3.545-22.016-0.857-29.89,7.016L0,30.368
  		l8.812,8.812C9.593,39.962,10.426,40.705,11.285,41.39z"/>
  	<path d="M50.237,21.325c-1.348-1.348-2.826-2.564-4.394-3.616c-0.458-0.307-1.081-0.185-1.388,0.273
  		c-0.308,0.458-0.185,1.08,0.273,1.388c1.46,0.979,2.838,2.113,4.094,3.369l7.398,7.398l-7.629,7.629
  		c-7.385,7.385-18.513,9.882-28.352,6.356c-0.52-0.187-1.093,0.084-1.279,0.604c-0.186,0.52,0.084,1.092,0.604,1.279
  		c3.182,1.14,6.49,1.693,9.776,1.693c7.621,0,15.124-2.977,20.665-8.518l9.043-9.043L50.237,21.325z"/>
  	<path d="M30.539,41.774c-2.153,0-4.251-0.598-6.07-1.73c-0.467-0.29-1.084-0.148-1.377,0.321c-0.292,0.469-0.148,1.085,0.321,1.377
  		c2.135,1.33,4.6,2.032,7.126,2.032c7.444,0,13.5-6.056,13.5-13.5c0-2.685-0.787-5.279-2.275-7.502
  		c-0.308-0.459-0.93-0.582-1.387-0.275c-0.459,0.308-0.582,0.929-0.275,1.387c1.267,1.893,1.937,4.102,1.937,6.39
  		C42.039,36.616,36.88,41.774,30.539,41.774z"/>
  	<path d="M30.539,18.774c2.065,0,4.089,0.553,5.855,1.6c0.474,0.281,1.088,0.125,1.37-0.351c0.281-0.475,0.125-1.088-0.351-1.37
  		c-2.074-1.229-4.451-1.879-6.875-1.879c-7.444,0-13.5,6.056-13.5,13.5c0,2.084,0.462,4.083,1.374,5.941
  		c0.174,0.354,0.529,0.56,0.899,0.56c0.147,0,0.298-0.033,0.439-0.102c0.496-0.244,0.701-0.843,0.458-1.338
  		c-0.776-1.582-1.17-3.284-1.17-5.06C19.039,23.933,24.198,18.774,30.539,18.774z"/>
  	<path d="M54.621,5.567c-0.391-0.391-1.023-0.391-1.414,0l-46.5,46.5c-0.391,0.391-0.391,1.023,0,1.414
  		c0.195,0.195,0.451,0.293,0.707,0.293s0.512-0.098,0.707-0.293l46.5-46.5C55.012,6.591,55.012,5.958,54.621,5.567z"/>
  </symbol>

	<!--alert-->
  	<symbol id="alert" viewBox="0 0 286.054 286.054" >
		<path style="fill:#E2574C;" d="M143.027,0C64.04,0,0,64.04,0,143.027c0,78.996,64.04,143.027,143.027,143.027
		c78.996,0,143.027-64.022,143.027-143.027C286.054,64.04,222.022,0,143.027,0z M143.027,259.236
		c-64.183,0-116.209-52.026-116.209-116.209S78.844,26.818,143.027,26.818s116.209,52.026,116.209,116.209
		S207.21,259.236,143.027,259.236z M143.036,62.726c-10.244,0-17.995,5.346-17.995,13.981v79.201c0,8.644,7.75,13.972,17.995,13.972
		c9.994,0,17.995-5.551,17.995-13.972V76.707C161.03,68.277,153.03,62.726,143.036,62.726z M143.036,187.723
		c-9.842,0-17.852,8.01-17.852,17.86c0,9.833,8.01,17.843,17.852,17.843s17.843-8.01,17.843-17.843
		C160.878,195.732,152.878,187.723,143.036,187.723z"/>
	</symbol>

  	<!--info-->
	<symbol id="info" viewBox="0 0 111.577 111.577">
		<path style="fill:#000000;" d="M78.962,99.536l-1.559,6.373c-4.677,1.846-8.413,3.251-11.195,4.217c-2.785,0.969-6.021,1.451-9.708,1.451
			c-5.662,0-10.066-1.387-13.207-4.142c-3.141-2.766-4.712-6.271-4.712-10.523c0-1.646,0.114-3.339,0.351-5.064
			c0.239-1.727,0.619-3.672,1.139-5.846l5.845-20.688c0.52-1.981,0.962-3.858,1.316-5.633c0.359-1.764,0.532-3.387,0.532-4.848
			c0-2.642-0.547-4.49-1.636-5.529c-1.089-1.036-3.167-1.562-6.252-1.562c-1.511,0-3.064,0.242-4.647,0.71
			c-1.59,0.47-2.949,0.924-4.09,1.346l1.563-6.378c3.829-1.559,7.489-2.894,10.99-4.002c3.501-1.111,6.809-1.667,9.938-1.667
			c5.623,0,9.962,1.359,13.009,4.077c3.047,2.72,4.57,6.246,4.57,10.591c0,0.899-0.1,2.483-0.315,4.747
			c-0.21,2.269-0.601,4.348-1.171,6.239l-5.82,20.605c-0.477,1.655-0.906,3.547-1.279,5.676c-0.385,2.115-0.569,3.731-0.569,4.815
			c0,2.736,0.61,4.604,1.833,5.597c1.232,0.993,3.354,1.487,6.368,1.487c1.415,0,3.025-0.251,4.814-0.744
			C76.854,100.348,78.155,99.915,78.962,99.536z M80.438,13.03c0,3.59-1.353,6.656-4.072,9.177c-2.712,2.53-5.98,3.796-9.803,3.796
			c-3.835,0-7.111-1.266-9.854-3.796c-2.738-2.522-4.11-5.587-4.11-9.177c0-3.583,1.372-6.654,4.11-9.207
			C59.447,1.274,62.729,0,66.563,0c3.822,0,7.091,1.277,9.803,3.823C79.087,6.376,80.438,9.448,80.438,13.03z"/>
	</symbol>

	<!--check-->
  	<symbol id="check" viewBox="0 0 30.258 30.258" >
			<!-- <path style="fill:#008000;" d="M15.129,0C6.773,0,0,6.772,0,15.13c0,8.354,6.773,15.128,15.129,15.128s15.129-6.773,15.129-15.128
			C30.258,6.772,23.484,0,15.129,0z M15.129,27.854c-7.027,0-12.725-5.697-12.725-12.726c0-7.026,5.697-12.725,12.725-12.725
			s12.727,5.698,12.727,12.725C27.855,22.156,22.156,27.854,15.129,27.854z"/> -->
		<path style="fill:#008000;" d="M25.854,9.989l-1.762-1.762c-0.322-0.324-0.85-0.324-1.172,0L12.361,18.786l-5.023-5.061
			c-0.324-0.323-0.848-0.323-1.174,0l-1.76,1.761c-0.324,0.322-0.324,0.851,0,1.175l5.586,5.626l0.016,0.025l1.219,1.219l0.283,0.281
			l0.26,0.262c0.322,0.32,0.85,0.32,1.174,0l12.912-12.912C26.178,10.839,26.178,10.312,25.854,9.989z"/>
	</symbol>

  	<!--rating-->
	<symbol id="rating" viewBox="0 0 512 512">
    	<path style="fill:#000000;" d="m256 143.75 56.277344 29.589844-10.75-62.667969 45.558594-44.398437-62.945313-9.140626-28.140625-57.132812-28.140625 57.132812-62.945313 9.140626 45.558594 44.398437-10.75 62.667969zm0 0"/>
    	<path style="fill:#000000;" d="m446.136719 159.128906-28.140625-57.023437-28.140625 57.023437-62.914063 9.140625 45.527344 44.386719-10.75 62.679688 56.277344-29.589844 56.308594 29.589844-10.78125-62.679688 48.476562-44.386719zm0 0"/>
    	<path style="fill:#000000;" d="m48.476562 212.65625-10.78125 62.679688 56.308594-29.589844 56.277344 29.589844-10.75-62.679688 45.527344-44.386719-62.914063-9.140625-28.140625-57.023437-28.140625 57.023437-65.863281 9.140625zm0 0"/>
    	<path style="fill:#000000;" d="m331 286c0-41.351562-33.648438-75-75-75s-75 33.648438-75 75 33.648438 75 75 75 75-33.648438 75-75zm0 0"/>
    	<path style="fill:#000000;" d="m151 466v46h210v-46c0-57.890625-47.109375-105-105-105s-105 47.109375-105 105zm0 0"/>
    	<path style="fill:#000000;" d="m481 496c0-41.351562-33.648438-75-75-75-7.757812 0-15.09375 1.523438-22.136719 3.71875 4.246094 13.09375 7.136719 26.792969 7.136719 41.28125v46h90zm0 0"/>
    	<path style="fill:#000000;" d="m466 361c0-33.089844-26.910156-60-60-60s-60 26.910156-60 60c0 1.910156.386719 3.714844.5625 5.578125 14.792969 13.484375 26.722656 29.941406 34.386719 48.765625 7.648437 3.542969 16.082031 5.65625 25.050781 5.65625 33.089844 0 60-26.910156 60-60zm0 0"/>
    	<path style="fill:#000000;" d="m165.4375 366.578125c.175781-1.863281.5625-3.667969.5625-5.578125 0-33.089844-26.910156-60-60-60s-60 26.910156-60 60 26.910156 60 60 60c8.96875 0 17.402344-2.113281 25.050781-5.652344 7.664063-18.828125 19.59375-35.285156 34.386719-48.769531zm0 0"/>
    	<path style="fill:#000000;" d="m31 496v16h90v-46c0-14.488281 2.890625-28.1875 7.136719-41.28125-7.042969-2.195312-14.378907-3.71875-22.136719-3.71875-41.351562 0-75 33.648438-75 75zm0 0"/>
	</symbol>

	<!--fullHeart-->
	<symbol viewBox="0 -28 512.00002 512" id="fullHeart">
    	<path d="m471.382812 44.578125c-26.503906-28.746094-62.871093-44.578125-102.410156-44.578125-29.554687 0-56.621094 9.34375-80.449218 27.769531-12.023438 9.300781-22.917969 20.679688-32.523438 33.960938-9.601562-13.277344-20.5-24.660157-32.527344-33.960938-23.824218-18.425781-50.890625-27.769531-80.445312-27.769531-39.539063 0-75.910156 15.832031-102.414063 44.578125-26.1875 28.410156-40.613281 67.222656-40.613281 109.292969 0 43.300781 16.136719 82.9375 50.78125 124.742187 30.992188 37.394531 75.535156 75.355469 127.117188 119.3125 17.613281 15.011719 37.578124 32.027344 58.308593 50.152344 5.476563 4.796875 12.503907 7.4375 19.792969 7.4375 7.285156 0 14.316406-2.640625 19.785156-7.429687 20.730469-18.128907 40.707032-35.152344 58.328125-50.171876 51.574219-43.949218 96.117188-81.90625 127.109375-119.304687 34.644532-41.800781 50.777344-81.4375 50.777344-124.742187 0-42.066407-14.425781-80.878907-40.617188-109.289063zm0 0"/>
	</symbol>

	<!--emptyHeart-->
	<symbol viewBox="0 -28 512.001 512" id="emptyHeart">
    	<path d="m256 455.515625c-7.289062 0-14.316406-2.640625-19.792969-7.4375-20.683593-18.085937-40.625-35.082031-58.21875-50.074219l-.089843-.078125c-51.582032-43.957031-96.125-81.917969-127.117188-119.3125-34.644531-41.804687-50.78125-81.441406-50.78125-124.742187 0-42.070313 14.425781-80.882813 40.617188-109.292969 26.503906-28.746094 62.871093-44.578125 102.414062-44.578125 29.554688 0 56.621094 9.34375 80.445312 27.769531 12.023438 9.300781 22.921876 20.683594 32.523438 33.960938 9.605469-13.277344 20.5-24.660157 32.527344-33.960938 23.824218-18.425781 50.890625-27.769531 80.445312-27.769531 39.539063 0 75.910156 15.832031 102.414063 44.578125 26.191406 28.410156 40.613281 67.222656 40.613281 109.292969 0 43.300781-16.132812 82.9375-50.777344 124.738281-30.992187 37.398437-75.53125 75.355469-127.105468 119.308594-17.625 15.015625-37.597657 32.039062-58.328126 50.167969-5.472656 4.789062-12.503906 7.429687-19.789062 7.429687zm-112.96875-425.523437c-31.066406 0-59.605469 12.398437-80.367188 34.914062-21.070312 22.855469-32.675781 54.449219-32.675781 88.964844 0 36.417968 13.535157 68.988281 43.882813 105.605468 29.332031 35.394532 72.960937 72.574219 123.476562 115.625l.09375.078126c17.660156 15.050781 37.679688 32.113281 58.515625 50.332031 20.960938-18.253907 41.011719-35.34375 58.707031-50.417969 50.511719-43.050781 94.136719-80.222656 123.46875-115.617188 30.34375-36.617187 43.878907-69.1875 43.878907-105.605468 0-34.515625-11.605469-66.109375-32.675781-88.964844-20.757813-22.515625-49.300782-34.914062-80.363282-34.914062-22.757812 0-43.652344 7.234374-62.101562 21.5-16.441406 12.71875-27.894532 28.796874-34.609375 40.046874-3.453125 5.785157-9.53125 9.238282-16.261719 9.238282s-12.808594-3.453125-16.261719-9.238282c-6.710937-11.25-18.164062-27.328124-34.609375-40.046874-18.449218-14.265626-39.34375-21.5-62.097656-21.5zm0 0"/>
	</symbol>
</svg>


